<?xml version="1.0" standalone="no"?>
<!DOCTYPE svg PUBLIC "-//W3C//DTD SVG 20010904//EN"
 "http://www.w3.org/TR/2001/REC-SVG-20010904/DTD/svg10.dtd">
<svg version="1.0" xmlns="http://www.w3.org/2000/svg"
 width="1025.000000pt" height="1025.000000pt" viewBox="0 0 1025.000000 1025.000000"
 preserveAspectRatio="xMidYMid meet">
<metadata>
Created by potrace 1.14, written by Peter Selinger 2001-2017
</metadata>
<g transform="translate(0.000000,1025.000000) scale(0.100000,-0.100000)"
fill="#000000" stroke="none">
<path d="M5134 9431 c-2 -2 -54 -5 -116 -7 -62 -1 -135 -5 -163 -9 -27 -3 -70
-8 -95 -11 -174 -21 -506 -97 -585 -134 -11 -6 -49 -19 -84 -30 -62 -20 -181
-69 -191 -80 -3 -3 -13 -6 -23 -8 -28 -5 -169 -73 -214 -103 -23 -16 -44 -29
-47 -29 -7 0 -109 -62 -116 -70 -3 -4 -32 -24 -65 -45 -125 -82 -333 -250
-420 -341 -112 -117 -171 -183 -202 -227 -20 -28 -44 -60 -55 -71 -10 -12 -31
-41 -45 -66 -15 -25 -33 -51 -40 -58 -7 -7 -13 -20 -13 -28 0 -8 -4 -14 -10
-14 -5 0 -10 -6 -10 -14 0 -8 -3 -16 -7 -18 -17 -7 -153 -270 -153 -294 0 -10
-12 -41 -60 -149 -7 -16 -14 -34 -16 -40 -1 -5 -9 -27 -18 -47 -9 -21 -13 -38
-9 -38 5 0 3 -4 -2 -8 -8 -5 -50 -120 -62 -167 -1 -5 -12 -46 -23 -90 -12 -44
-23 -88 -25 -98 -2 -10 -7 -27 -10 -37 -3 -10 -8 -27 -10 -37 -2 -10 -11 -45
-19 -79 -8 -34 -17 -72 -20 -85 -3 -13 -12 -55 -21 -94 -9 -38 -18 -83 -20
-100 -2 -16 -6 -43 -9 -59 -3 -16 -8 -50 -12 -75 -4 -25 -8 -54 -10 -63 -1 -9
-6 -48 -9 -85 -4 -37 -9 -76 -11 -85 -16 -87 -21 -442 -9 -618 10 -146 9 -190
-2 -190 -5 0 -21 9 -38 20 -16 11 -39 25 -50 32 -11 7 -22 16 -25 19 -3 4 -29
19 -59 34 -42 21 -64 26 -94 22 -46 -6 -117 -51 -124 -78 -3 -10 -9 -19 -13
-19 -4 0 -11 -12 -15 -27 -3 -16 -13 -41 -20 -58 -35 -78 -51 -158 -60 -293
-2 -35 -7 -67 -10 -72 -3 -5 -1 -11 4 -14 6 -4 6 -18 1 -35 -4 -15 -4 -34 0
-41 5 -7 4 -23 0 -36 -5 -12 -6 -24 -4 -27 3 -3 7 -25 9 -49 4 -44 11 -116 21
-203 3 -27 7 -66 9 -85 2 -19 6 -48 9 -65 2 -16 8 -59 11 -95 4 -35 8 -67 10
-70 2 -4 12 -64 19 -120 3 -23 27 -123 33 -140 3 -8 7 -20 8 -26 2 -7 15 -46
30 -89 33 -91 80 -169 115 -187 14 -7 27 -15 30 -18 17 -18 67 -29 108 -24 92
10 120 12 129 5 12 -8 73 -210 98 -321 3 -13 27 -109 40 -160 2 -8 8 -33 13
-55 43 -171 98 -328 151 -430 11 -22 25 -51 30 -65 6 -14 15 -33 21 -42 24
-43 30 -55 44 -83 36 -80 246 -378 306 -435 15 -14 44 -48 66 -75 63 -81 101
-122 371 -399 28 -29 76 -82 105 -117 54 -65 356 -372 415 -422 18 -15 37 -27
41 -27 5 0 17 -9 27 -20 10 -11 24 -20 32 -20 7 0 13 -4 13 -9 0 -5 9 -13 21
-16 11 -4 35 -19 52 -35 18 -15 37 -28 42 -29 29 -5 61 -15 70 -22 11 -8 169
-69 195 -74 8 -2 15 -4 15 -5 0 -2 17 -6 60 -15 57 -13 60 -13 60 -15 0 -2 45
-13 115 -27 46 -9 50 -10 53 -12 1 -1 25 -4 52 -6 28 -2 61 -6 75 -9 62 -14
161 -19 370 -19 204 0 262 3 355 19 17 2 48 7 70 10 53 6 227 54 243 67 6 5
12 6 12 3 0 -4 10 -1 23 6 12 7 24 13 27 13 15 2 81 39 91 51 6 8 18 14 25 14
8 0 14 5 14 10 0 6 5 10 10 10 6 0 16 4 23 10 26 21 134 102 177 132 25 17 59
43 76 57 18 14 46 37 65 51 18 14 37 30 43 35 6 6 38 30 71 55 55 42 83 64
141 115 13 11 37 31 55 45 43 33 198 157 225 180 12 10 57 46 100 81 101 82
302 269 289 269 -2 0 9 12 23 28 36 37 183 227 202 260 8 15 18 29 21 32 10 8
85 139 121 210 18 36 35 67 38 70 6 6 40 97 47 128 3 12 9 22 14 22 5 0 9 9 9
20 0 11 5 20 10 20 6 0 10 11 10 24 0 13 4 26 8 28 8 3 119 307 129 356 3 12
9 22 13 22 4 0 12 17 18 38 l12 39 62 -14 c146 -33 139 -33 177 -8 45 29 101
81 101 93 0 6 7 12 15 16 8 3 15 12 15 20 0 8 6 21 13 28 17 17 95 180 103
216 4 15 10 32 14 37 6 9 39 104 44 130 2 6 11 36 20 69 10 32 19 65 20 72 1
7 5 17 9 20 4 4 7 17 7 29 0 12 3 25 7 29 4 3 9 17 11 29 5 29 10 51 12 55 2
1 3 5 4 10 2 4 8 27 16 52 7 25 14 54 15 65 1 11 7 38 13 60 6 22 14 56 17 75
5 33 9 54 20 110 9 44 21 149 20 170 -1 11 2 20 6 20 5 0 6 6 4 13 -3 6 -7 37
-9 67 -13 179 -53 265 -150 327 -36 23 -45 24 -96 8 -3 -1 -43 -20 -90 -43
-98 -48 -117 -44 -100 20 6 19 12 53 14 74 3 22 5 41 7 44 2 6 2 6 14 75 10
57 12 64 15 68 5 6 23 117 24 150 0 9 3 17 6 17 3 0 5 12 5 28 1 15 4 47 8 72
26 163 28 766 2 950 -3 19 -7 60 -10 90 -4 30 -8 63 -11 72 -3 9 -7 39 -9 65
-3 26 -9 68 -14 93 -5 25 -12 65 -16 90 -3 25 -11 65 -17 90 -5 25 -12 56 -14
70 -3 14 -12 50 -20 80 -8 30 -16 62 -18 70 -3 8 -11 35 -19 60 -8 25 -27 86
-42 135 -23 81 -52 149 -133 325 -14 30 -29 57 -32 60 -3 3 -16 28 -30 55 -14
28 -31 56 -37 63 -7 7 -13 17 -13 22 0 5 -6 15 -12 22 -13 14 -19 23 -59 86
-12 17 -25 32 -30 32 -5 0 -9 6 -9 13 0 6 -18 31 -40 55 -22 24 -40 46 -40 50
0 4 -23 31 -50 61 -28 29 -50 57 -50 60 0 14 -197 207 -246 241 -22 16 -125
103 -156 133 -10 9 -20 17 -23 17 -5 0 -140 87 -250 160 -39 26 -385 200 -398
200 -4 0 -35 13 -69 29 -58 26 -169 66 -214 76 -10 2 -62 16 -115 29 -104 27
-225 53 -286 61 -21 4 -63 10 -93 15 -50 8 -97 14 -220 26 -45 5 -179 12 -298
17 -35 1 -65 0 -68 -2z"/>
</g>
</svg>
